<svg xmlns="http://www.w3.org/2000/svg" width="686.021" height="106.45" viewBox="0 0 686.021 106.45">
  <g id="Group_64" data-name="Group 64" transform="translate(-15051 -5232)">
    <rect id="Rectangle_56" data-name="Rectangle 56" width="5.611" height="57.666" transform="translate(15214.927 5256.392)" fill="#262836"/>
    <path id="Path_83" data-name="Path 83" d="M151.135,60.584l39.284-48.231H151.785V7.311h45.222v4.473l-38.8,48.231h38.715v5.042H151.135Z" transform="translate(15079 5249)" fill="#262836"/>
    <path id="Path_84" data-name="Path 84" d="M228.891,65.464a24.438,24.438,0,0,1-11.021-2.481,27.373,27.373,0,0,1-8.581-6.588A29.893,29.893,0,0,1,203.759,47a30.977,30.977,0,0,1-1.952-10.817,30.016,30.016,0,0,1,2.074-11.061,30.515,30.515,0,0,1,5.733-9.354A27.762,27.762,0,0,1,218.235,9.3a24.343,24.343,0,0,1,10.737-2.4,23.817,23.817,0,0,1,11.02,2.562,27.672,27.672,0,0,1,8.54,6.71,30.982,30.982,0,0,1,5.49,9.394,30.438,30.438,0,0,1,1.953,10.7A30.008,30.008,0,0,1,253.9,47.327a30.4,30.4,0,0,1-5.693,9.313,27.534,27.534,0,0,1-8.58,6.425,24.333,24.333,0,0,1-10.736,2.4M207.5,36.184a26.9,26.9,0,0,0,1.545,9.069,24.609,24.609,0,0,0,4.392,7.726,21.59,21.59,0,0,0,6.751,5.369,18.849,18.849,0,0,0,8.7,1.992,18.613,18.613,0,0,0,8.865-2.114,21.653,21.653,0,0,0,6.751-5.531,25.58,25.58,0,0,0,4.269-7.727,26.553,26.553,0,0,0-.081-17.852,24.824,24.824,0,0,0-4.432-7.686,21.906,21.906,0,0,0-6.751-5.328,18.7,18.7,0,0,0-8.621-1.992,18.909,18.909,0,0,0-8.866,2.074,21.106,21.106,0,0,0-6.751,5.49,25.544,25.544,0,0,0-4.269,7.726,26.466,26.466,0,0,0-1.505,8.784" transform="translate(15079 5249)" fill="#262836"/>
    <path id="Path_85" data-name="Path 85" d="M266.954,65.057V7.31h5.611V60.015h33.429v5.042Z" transform="translate(15079 5249)" fill="#262836"/>
    <path id="Path_86" data-name="Path 86" d="M308.839,65.057,333,7.311h4.635l24.157,57.746h-6.1L348.2,47H322.259l-7.4,18.056ZM335.354,13.98,323.48,42.528H346.9Z" transform="translate(15079 5249)" fill="#262836"/>
    <path id="Path_87" data-name="Path 87" d="M366.424,35.778a30.869,30.869,0,0,1,1.829-10.37,28.774,28.774,0,0,1,5.328-9.232A27.332,27.332,0,0,1,382.2,9.548a25.653,25.653,0,0,1,11.631-2.562,23.9,23.9,0,0,1,13.176,3.5,21.92,21.92,0,0,1,8.133,9.109l-4.555,2.766a17.592,17.592,0,0,0-3.334-4.8,17.943,17.943,0,0,0-8.947-4.921,22.645,22.645,0,0,0-4.8-.528,19.321,19.321,0,0,0-9.191,2.114,21.163,21.163,0,0,0-6.71,5.531,24.106,24.106,0,0,0-4.108,7.686,27.951,27.951,0,0,0-1.382,8.662,25.666,25.666,0,0,0,1.667,9.191,26.014,26.014,0,0,0,4.555,7.767,21.863,21.863,0,0,0,6.832,5.368,18.748,18.748,0,0,0,8.58,1.993,21.591,21.591,0,0,0,5-.61,19.3,19.3,0,0,0,4.962-1.952,20.928,20.928,0,0,0,4.433-3.335,17.278,17.278,0,0,0,3.416-4.839l4.716,2.44a17.657,17.657,0,0,1-3.9,5.734,25.71,25.71,0,0,1-5.612,4.189,28.008,28.008,0,0,1-6.547,2.6,27.071,27.071,0,0,1-6.792.895,23.083,23.083,0,0,1-10.9-2.6,28.556,28.556,0,0,1-8.541-6.791,31.49,31.49,0,0,1-5.571-9.516,30.747,30.747,0,0,1-1.992-10.858" transform="translate(15079 5249)" fill="#262836"/>
    <path id="Path_88" data-name="Path 88" d="M465,60.015v5.042H426.2V7.311h38.064v5.042H431.814V33.175h28.3v4.8h-28.3V60.015Z" transform="translate(15079 5249)" fill="#262836"/>
    <path id="Path_89" data-name="Path 89" d="M476.059,65.057V7.31h37.819v5.043H481.67V33.581h27.247V38.3H481.67V65.057Z" transform="translate(15079 5249)" fill="#262836"/>
    <path id="Path_90" data-name="Path 90" d="M546.981,60.34a18.022,18.022,0,0,0,9.068-2.074,16.418,16.418,0,0,0,5.775-5.449,22.147,22.147,0,0,0,3.01-7.686,44.7,44.7,0,0,0,.853-8.7V7.311h5.693V36.428a46.054,46.054,0,0,1-1.3,11.1,26.4,26.4,0,0,1-4.19,9.231,20.7,20.7,0,0,1-7.522,6.344,24.718,24.718,0,0,1-11.306,2.359,24.259,24.259,0,0,1-11.55-2.481,21.1,21.1,0,0,1-7.482-6.547,26.548,26.548,0,0,1-4.067-9.272,46.9,46.9,0,0,1-1.219-10.736V7.311h5.611V36.428a43.462,43.462,0,0,0,.9,8.865,22.262,22.262,0,0,0,3.05,7.646,16.252,16.252,0,0,0,5.734,5.368,17.9,17.9,0,0,0,8.947,2.033" transform="translate(15079 5249)" fill="#262836"/>
    <path id="Path_91" data-name="Path 91" d="M585.045,65.057V7.391h5.611V40.9l31.8-33.591h6.263L605.134,32.686l24.888,32.371h-6.263L601.637,36.021,590.656,47.327v17.73Z" transform="translate(15079 5249)" fill="#262836"/>
    <path id="Path_92" data-name="Path 92" d="M82.76,20.449a15.223,15.223,0,0,0-27.6-12.616A15.328,15.328,0,0,0,52.6,4.457,15.238,15.238,0,0,0,28.53,7.833,15.223,15.223,0,0,0,.924,20.449L13.806,61.1A15.222,15.222,0,0,0,39.29,67.993a15.326,15.326,0,0,0,2.553-3.377A15.29,15.29,0,0,0,44.4,67.993a15.228,15.228,0,0,0,25.361-6.449ZM68.468,3.809a11.417,11.417,0,0,1,10.7,15.37c-.006.015-.012.03-.017.046l-.007.02c-.005.012-.008.023-.012.035L69.087,51.036l-11.3-31.8-.008-.021c0-.014-.009-.028-.015-.041a11.415,11.415,0,0,1,10.7-15.37m-26.625,0a11.417,11.417,0,0,1,10.7,15.37l0,.01-.006.014L41.843,49.3,31.149,19.2l-.006-.017,0-.007a11.417,11.417,0,0,1,10.7-15.37m-26.625,0a11.415,11.415,0,0,1,10.7,15.37l0,.013-.005.011-11.3,31.813L4.545,19.267l-.007-.022-.006-.02-.018-.046a11.417,11.417,0,0,1,10.7-15.37M28.53,68.642A11.415,11.415,0,0,1,18,52.846c.009-.021.016-.042.024-.063l.013-.032,10.5-29.545,10.5,29.545.016.039c.008.019.012.038.02.056a11.415,11.415,0,0,1-10.534,15.8m26.626,0a11.415,11.415,0,0,1-10.535-15.8c.008-.02.014-.04.022-.06s.01-.023.014-.035l10.5-29.545,10.5,29.545,0,.01c.011.028.021.056.033.085a11.415,11.415,0,0,1-10.534,15.8" transform="translate(15079 5249)" fill="#84cc16"/>
    <rect id="Rectangle_57" data-name="Rectangle 57" width="686.021" height="106.45" transform="translate(15051 5232)" fill="none"/>
  </g>
</svg>
